<svg viewBox="0 0 77 77" xmlns="http://www.w3.org/2000/svg">
  <g fill-rule="nonzero" fill="none">
    <path fill="#000" d="M-1 77.8h79.2V-1H-1"/>
    <path d="M14.6 33.4c-.3-1.3-.9-2.4-2.5-2.4-2.8 0-3 3.2-3 5.7 0 3.2 1 5.2 3.6 5.2 1.3 0 2.3-.4 3.3-1l.4 1.8c-.7.5-2.2 1-4.1 1-4.5 0-5.5-3.6-5.5-7.1 0-3.7 1-7.3 5.2-7.3 3.2 0 4.1 1.9 4.5 3.6-.5.2-1.2.4-1.9.5M23.9 38.4c0-1.7-.3-3.6-2-3.6-1.8 0-2.2 2.2-2.2 3.7 0 1.9.4 3.6 2.1 3.6 1.7 0 2.1-1.9 2.1-3.7m-6.3.1c0-3 1.3-5.4 4.3-5.4 3.2 0 4.1 2.5 4.1 5.2s-1.1 5.5-4.3 5.5c-3.2 0-4.1-2.8-4.1-5.3M28.3 29.7h2.1v10.9c0 1 .3 1.4 1 1.4.4 0 .9-.2 1.5-.4l.3 1.6c-.6.3-1.5.5-2.2.5-2 0-2.6-1.1-2.6-2.9V29.7h-.1zM40.4 38.4c0-1.7-.3-3.6-2-3.6-1.8 0-2.2 2.2-2.2 3.7 0 1.9.4 3.6 2.1 3.6 1.7 0 2.1-1.9 2.1-3.7m-6.3.1c0-3 1.3-5.4 4.3-5.4 3.2 0 4.1 2.5 4.1 5.2s-1.1 5.5-4.3 5.5c-3.2 0-4.1-2.8-4.1-5.3M50.9 42.4c-.9.7-1.9 1.3-3.2 1.3-1.7 0-2.6-.8-2.8-2.1-.1-.3-.1-.9-.1-1.3v-6.8l2.1-.3V40c0 .5 0 .7.1.9.1.7.6 1 1.4 1 .9 0 1.7-.5 2.4-1.1v-7.6h2.1v10.3H51l-.1-1.1zM62.4 34.6l-1.5 1.1c-.3-.6-.6-.8-1.1-.8-.7 0-1.3.4-2.1 1.2v7.5h-2.1V33.3h1.8l.1 1.1c.6-.6 1.6-1.3 2.6-1.3 1.2 0 1.8.5 2.3 1.5M63.6 40.9c.6.5 1.9 1.2 2.9 1.2s1.7-.4 1.7-1.3c0-1-.9-1.3-2-1.7H66c-1.3-.4-2.8-.9-2.8-3 0-2 1.6-3 3.6-3 2.3 0 3.3 1.3 3.5 2.4l-1.6.6c-.3-1-1.1-1.4-1.9-1.4-.9 0-1.6.4-1.6 1.3 0 1 1 1.4 2.1 1.7l.2.1c1.3.4 2.7 1 2.7 2.9 0 1.8-1.3 3.1-3.7 3.1-1.5 0-3-.7-3.5-1.1l.6-1.8z" fill="#FEFEFE"/>
  </g>
</svg>
